<svg version="1.2" xmlns="http://www.w3.org/2000/svg" viewBox="0 0 512 120" width="512" height="120"><defs><linearGradient id="P" gradientUnits="userSpaceOnUse"/><linearGradient id="g1" x2="1" href="#P" gradientTransform="matrix(74,-74,74,74,71,97)"><stop stop-color="#da627d"/><stop offset=".5" stop-color="#c084fc"/><stop offset="1" stop-color="#a855f7"/></linearGradient></defs><style>.a{fill:url(#g1)}.b{fill:#a855f7}</style><path class="a" d="m108 110c-27.7 0-50-22.3-50-50 0-27.7 22.3-50 50-50 27.7 0 50 22.3 50 50 0 27.7-22.3 50-50 50z"/><path class="b" d="m255.7 42.9c-6.1 0-11.3 2.4-14.8 6.7-3.1-4.6-8.1-6.7-13.9-6.7-4.8 0-9.2 1.6-12.5 4.9v-4.1h-17.4v44.3h18.3v-21.6c0-5.9 2.5-8.1 5.7-8.1 3.1 0 4.9 2.1 4.9 7.6v22.1h18.4v-21.6c0-5.9 2.5-8.1 5.7-8.1 2.9 0 4.9 2.1 4.9 7.6v22.1h18.4v-25.3c0-13.9-7.7-19.8-17.7-19.8zm34.7-2.8c6.8 0 11.1-4 11.1-9.6 0-5.3-4.3-9-11.1-9-6.7 0-11 4-11 9.3 0 5.3 4.3 9.3 11 9.3zm-9.1 47.9h18.3v-44.3h-18.3zm49.8 0.8c15.1 0 25.8-9.6 25.8-23 0-13.4-10.7-22.9-25.8-22.9-15 0-25.8 9.5-25.8 22.9 0 13.4 10.8 23 25.8 23zm0-14.3c-4 0-7.2-2.9-7.2-8.7 0-5.8 3.2-8.7 7.2-8.7 4.1 0 7.2 2.9 7.2 8.7 0 5.8-3.1 8.7-7.2 8.7zm62.3-31.6c-5.2 0-9.9 1.7-13.4 5.2v-4.4h-17.4v44.3h18.3v-20.8c0-6.6 3.2-8.9 6.9-8.9 3.3 0 5.4 2.1 5.4 7.6v22.1h18.3v-25.3c0-13.9-7.9-19.8-18.1-19.8zm45.9 0c-6.9 0-14.7 1.8-19.9 5l5.8 12.1c2.9-2.2 7.4-3.5 11.4-3.5 5.2 0 7.7 1.8 8.3 5.2h-7.4c-13.7 0-20.2 4.7-20.2 13.3 0 7.6 5.6 13.8 16.4 13.8 6.3 0 10.5-2.2 12.6-6.6v5.8h17v-23.8c0-14.8-8.8-21.3-24-21.3zm-0.1 34.9c-2.7 0-4.3-1.6-4.3-3.6 0-2.4 1.7-3.7 5.6-3.7h4.5v3.1c-1 2.9-3.2 4.2-5.8 4.2z"/></svg>